<svg xmlns="http://www.w3.org/2000/svg" width="185" height="268" viewBox="0 0 185 268"><g transform="translate(-284 -317)"><path d="M420.3,436.918c1.93-5.107,2.059-10.579,2.1-15.956.052-6.783-.024-13.653-2-20.215a40.726,40.726,0,0,0-14.269-20.206c.144,22.736-3.177,48.009.841,70.4C413.293,449.256,418.288,442.251,420.3,436.918Z" transform="translate(9.023 89.607)" fill="#cba968"/><path d="M407.087,436.918c-1.93-5.107-2.059-10.579-2.1-15.956-.052-6.783.024-13.653,2-20.215a40.726,40.726,0,0,1,14.269-20.206c-.144,22.736,3.177,48.009-.841,70.4C414.1,449.256,409.1,442.251,407.087,436.918Z" transform="translate(-81.977 -18.393)" fill="#cba968"/><g transform="translate(296 329)" fill="none" stroke="#cba968" stroke-width="12"><rect width="161" height="244" stroke="none"/><rect x="-6" y="-6" width="173" height="256" fill="none"/></g></g></svg>